<svg xmlns="http://www.w3.org/2000/svg" width="20" height="19" viewBox="0 0 20 19"><title>GitHub Icon</title><path d="M10.1 0C4.8 0 .5 4.2.5 9.4c0 4.1 2.7 7.6 6.6 8.9.4.1.6-.2.6-.5v-1.6C5 16.8 4.5 15 4.5 15c-.5-1.1-1.1-1.4-1.1-1.4-.9-.6.1-.6.1-.6.9.1 1.4 1 1.4 1 .9 1.4 2.3 1 2.8.8.1-.6.4-1 .6-1.3-2.1-.2-4.3-1-4.3-4.6 0-1 .3-1.9 1-2.5-.1-.3-.5-1.2 0-2.5 0 0 .9-.3 2.7 1 .7-.3 1.6-.4 2.4-.4.8 0 1.6.1 2.4.4 1.8-1.3 2.6-1 2.6-1 .5 1.3.2 2.2.1 2.5.6.6 1 1.5 1 2.5 0 3.6-2.2 4.4-4.4 4.6.4.3.7.9.7 1.8v2.5c0 .3.1.6.6.5 3.8-1.3 6.6-4.8 6.6-8.9 0-5.2-4.3-9.4-9.6-9.4" fill="#fff"/></svg>