<svg xmlns="http://www.w3.org/2000/svg" width="17" height="13" viewBox="0 0 17 13"><title>Twitter Icon</title><path d="M2.5 7.6c.2 0 .4.1.6.1.3 0 .7-.1 1-.2-1.6-.2-2.7-1.4-2.7-2.9v-.1c.4.2.9.4 1.5.4-.9-.5-1.5-1.5-1.5-2.6 0-.5.1-1.1.4-1.5 1.6 1.8 4 3 6.7 3.2v-.7C8.5 1.6 9.9.2 11.8.2c.9 0 1.8.4 2.4 1 .7-.1 1.4-.3 2-.7-.2.7-.7 1.3-1.4 1.7.7-.1 1.3-.3 1.9-.5-.4.6-1 1.1-1.6 1.6v.4c0 4.8-4.2 8.7-9.4 8.7-1.8 0-3.6-.6-5-1.4h.8c1.5 0 2.9-.5 4.1-1.3-1.5 0-2.7-.9-3.1-2.1z" fill="#fff" opacity=".935"/></svg>