<svg xmlns="http://www.w3.org/2000/svg" xmlns:xlink="http://www.w3.org/1999/xlink" xmlns:sketch="http://www.bohemiancoding.com/sketch/ns" width="20px" height="19px" viewBox="0 0 20 19" version="1.1">
    <title>GitHub Icon</title>
    <defs/>
    <g stroke="none" stroke-width="1" fill="none" fill-rule="evenodd" sketch:type="MSPage">
        <g sketch:type="MSArtboardGroup" fill="#FFFFFF">
            <path d="M10.1 0 C4.8 0 0.5 4.2 0.5 9.4 C0.5 13.5 3.2 17 7.1 18.3 C7.5 18.4 7.7 18.1 7.7 17.8 C7.7 17.6 7.7 17 7.7 16.2 C5 16.8 4.5 15 4.5 15 C4 13.9 3.4 13.6 3.4 13.6 C2.5 13 3.5 13 3.5 13 C4.4 13.1 4.9 14 4.9 14 C5.8 15.4 7.2 15 7.7 14.8 C7.8 14.2 8.1 13.8 8.3 13.5 C6.2 13.3 4 12.5 4 8.9 C4 7.9 4.3 7 5 6.4 C4.9 6.1 4.5 5.2 5 3.9 C5 3.9 5.9 3.6 7.7 4.9 C8.4 4.6 9.3 4.5 10.1 4.5 C10.9 4.5 11.7 4.6 12.5 4.9 C14.3 3.6 15.1 3.9 15.1 3.9 C15.6 5.2 15.3 6.1 15.2 6.4 C15.8 7 16.2 7.9 16.2 8.9 C16.2 12.5 14 13.3 11.8 13.5 C12.2 13.8 12.5 14.4 12.5 15.3 C12.5 16.5 12.5 17.5 12.5 17.8 C12.5 18.1 12.6 18.4 13.1 18.3 C16.9 17 19.7 13.5 19.7 9.4 C19.7 4.2 15.4 0 10.1 0 " sketch:type="MSShapeGroup"/>
        </g>
    </g>
</svg>
