<svg xmlns="http://www.w3.org/2000/svg" xmlns:xlink="http://www.w3.org/1999/xlink" xmlns:sketch="http://www.bohemiancoding.com/sketch/ns" width="17px" height="13px" viewBox="0 0 17 13" version="1.1">
    <title>Twitter Icon</title>
    <defs/>
    <g stroke="none" stroke-width="1" fill="none" fill-rule="evenodd" sketch:type="MSPage">
        <g sketch:type="MSArtboardGroup" fill="#FFFFFF" opacity="0.935109608">
            <path d="M2.5 7.6 C2.7 7.6 2.9 7.7 3.1 7.7 C3.4 7.7 3.8 7.6 4.1 7.5 C2.5 7.3 1.4 6.1 1.4 4.6 C1.4 4.5 1.4 4.5 1.4 4.5 C1.8 4.7 2.3 4.9 2.9 4.9 C2 4.4 1.4 3.4 1.4 2.3 C1.4 1.8 1.5 1.2 1.8 0.8 C3.4 2.6 5.8 3.8 8.5 4 C8.5 3.8 8.5 3.5 8.5 3.3 C8.5 1.6 9.9 0.2 11.8 0.2 C12.7 0.2 13.6 0.6 14.2 1.2 C14.9 1.1 15.6 0.9 16.2 0.5 C16 1.2 15.5 1.8 14.8 2.2 C15.5 2.1 16.1 1.9 16.7 1.7 C16.3 2.3 15.7 2.8 15.1 3.3 C15.1 3.3 15.1 3.3 15.1 3.3 C15.1 3.4 15.1 3.6 15.1 3.7 C15.1 8.5 10.9 12.4 5.7 12.4 C3.9 12.4 2.1 11.8 0.7 11 C0.9 11 1.2 11 1.5 11 C3 11 4.4 10.5 5.6 9.7 C4.1 9.7 2.9 8.8 2.5 7.6 Z" sketch:type="MSShapeGroup"/>
        </g>
    </g>
</svg>
